Coordinates
version=1
nRows=27
nColumns=12
inDegrees=yes

Units are S.I. units (second, meters, Newtons, ...)
Angles are in degrees

endheader
time	SC_y	SC_z	SC_x	AC_y	AC_z	AC_x	GH_y	GH_z	GH_yy	EL_x	PS_y
       0.0              -41.96          19.94          49.09          39.77         -17.51          -16.9         -100.2          42.56          165.9          42.68          135.4
  0.007644              -41.97          19.94          49.09          39.77         -17.51          -16.9         -100.1          42.55          165.8          42.68          135.4
   0.01529              -41.97          19.94          49.08          39.78         -17.51          -16.9         -100.1          42.54          165.8          42.69          135.4
   0.02293              -41.97          19.94          49.08          39.78         -17.52          -16.9         -100.1          42.54          165.7           42.7          135.4
   0.03058              -41.97          19.94          49.08          39.78         -17.52          -16.9         -100.0          42.53          165.7           42.7          135.4
   0.03822              -41.97          19.93          49.08          39.79         -17.52         -16.89         -99.98          42.52          165.6          42.71          135.4
   0.04586              -41.97          19.93          49.08          39.79         -17.52         -16.89         -99.94          42.51          165.6          42.72          135.4
   0.05351              -41.98          19.93          49.07          39.79         -17.52         -16.89         -99.89           42.5          165.5          42.73          135.4
   0.06115              -41.98          19.93          49.07           39.8         -17.52         -16.89         -99.84          42.49          165.4          42.74          135.4
    0.0688              -41.98          19.93          49.07           39.8         -17.52         -16.89         -99.79          42.48          165.4          42.74          135.4
   0.07644              -41.98          19.92          49.07          39.81         -17.52         -16.89         -99.73          42.47          165.3          42.76          135.4
   0.08408              -41.99          19.92          49.07          39.81         -17.52         -16.89         -99.67          42.46          165.2          42.77          135.5
   0.09173              -41.99          19.92          49.06          39.82         -17.52         -16.89         -99.61          42.44          165.1          42.78          135.5
   0.09937              -41.99          19.91          49.06          39.82         -17.52         -16.88         -99.54          42.43          165.0          42.79          135.5
     0.107               -42.0          19.91          49.06          39.83         -17.52         -16.88         -99.46          42.41          164.9          42.81          135.5
    0.1147               -42.0          19.91          49.05          39.84         -17.52         -16.88         -99.38           42.4          164.8          42.82          135.5
    0.1223               -42.0           19.9          49.05          39.84         -17.52         -16.88         -99.29          42.38          164.6          42.84          135.5
    0.1299              -42.01           19.9          49.04          39.85         -17.52         -16.87         -99.19          42.36          164.5          42.86          135.5
    0.1376              -42.01          19.89          49.04          39.86         -17.52         -16.87         -99.08          42.34          164.3          42.88          135.5
    0.1452              -42.02          19.89          49.03          39.87         -17.52         -16.87         -98.97          42.31          164.2           42.9          135.5
    0.1529              -42.02          19.88          49.03          39.88         -17.52         -16.87         -98.84          42.28          164.0          42.92          135.5
    0.1605              -42.03          19.87          49.02          39.89         -17.52         -16.86          -98.7          42.25          163.8          42.95          135.6
    0.1682              -42.04          19.87          49.01          39.91         -17.52         -16.86         -98.54          42.22          163.6          42.98          135.6
    0.1758              -42.04          19.86          49.01          39.92         -17.52         -16.85         -98.37          42.19          163.3          43.01          135.6
    0.1835              -42.05          19.85           49.0          39.94         -17.52         -16.85         -98.18          42.15          163.0          43.05          135.6
    0.1911              -42.06          19.84          48.99          39.96         -17.52         -16.84         -97.96           42.1          162.7          43.09          135.6
    0.1987              -42.07          19.83          48.98          39.98         -17.52         -16.84         -97.72          42.05          162.4          43.13          135.7
